<svg xmlns="http://www.w3.org/2000/svg" width="70.526" height="78" viewBox="0 0 70.526 78">
  <g id="Group_1816" data-name="Group 1816" transform="translate(-156 -123)">
    <path id="Path_1876" data-name="Path 1876" d="M70.526,25.143V52.794a11.331,11.331,0,0,1-5.66,9.8L52.608,69.672l-4.769,2.753-6.918,3.993c-.915.525-2.883,1.57-2.883,1.57V63.951L40.368,62.6l16.08-9.282a3.678,3.678,0,0,0,1.839-3.19V27.8a3.688,3.688,0,0,0-1.528-2.986,2.791,2.791,0,0,0-.311-.2L37.1,13.443a3.7,3.7,0,0,0-3.682,0L14.078,24.61a3.68,3.68,0,0,0-1.839,3.19V66.394L5.66,62.6A11.33,11.33,0,0,1,0,52.794V25.143a11.317,11.317,0,0,1,5.66-9.8L29.605,1.518a11.3,11.3,0,0,1,11.316,0L64.866,15.342a11.318,11.318,0,0,1,5.66,9.8" transform="translate(156 123)" fill="#d80429"/>
    <path id="Path_1877" data-name="Path 1877" d="M71.409,45.639,56.67,54.146a2.784,2.784,0,0,1-2.784,0l-15.04-8.683L53.89,36.775a2.177,2.177,0,0,1,2.169,0Z" transform="translate(136.136 104.342)" fill="#2a73dd"/>
    <path id="Path_1878" data-name="Path 1878" d="M93.5,63.324V80.541a2.165,2.165,0,0,1-1.082,1.876L77.843,90.83V73.613a2.165,2.165,0,0,1,1.082-1.876Z" transform="translate(116.194 90.619)" fill="#2a73dd"/>
    <path id="Path_1879" data-name="Path 1879" d="M51.06,110.543l-14.877-7.957-.761-.44a1.934,1.934,0,0,1-.966-1.675V64.335a.694.694,0,0,1,1.041-.6l14.476,8.361A2.159,2.159,0,0,1,51.06,73.97v36.357" transform="translate(138.38 90.457)" fill="#2a73dd"/>
  </g>
</svg>
